<?xml version="1.0" encoding="UTF-8" standalone="no"?>
<!DOCTYPE svg PUBLIC "-//W3C//DTD SVG 1.1//EN" "http://www.w3.org/Graphics/SVG/1.1/DTD/svg11.dtd">
<svg xmlns="http://www.w3.org/2000/svg" version="1.1" viewBox="0.00 0.00 160.00 161.00">
<path fill="#ffffff" d="
  M 92.31 0.00
  L 95.06 0.00
  C 113.90 1.68 128.67 16.64 127.83 35.76
  C 126.94 56.21 109.27 71.23 89.01 68.84
  C 66.11 66.14 53.12 41.69 62.08 20.71
  Q 69.89 2.41 92.31 0.00
  Z
  M 121.60 34.59
  A 28.17 28.17 0.0 0 0 93.43 6.42
  A 28.17 28.17 0.0 0 0 65.26 34.59
  A 28.17 28.17 0.0 0 0 93.43 62.76
  A 28.17 28.17 0.0 0 0 121.60 34.59
  Z"
/>
<path fill="#ffffff" d="
  M 90.25 37.00
  L 90.25 39.75
  Q 90.25 40.25 90.75 40.25
  L 98.00 40.25
  Q 98.50 40.25 98.50 40.75
  L 98.50 42.50
  Q 98.50 43.25 97.75 43.25
  L 91.13 43.25
  A 0.88 0.88 0.0 0 0 90.25 44.13
  L 90.25 48.38
  Q 90.25 49.00 89.63 49.00
  L 87.00 49.00
  Q 86.25 49.00 86.25 48.25
  L 86.25 43.69
  Q 86.25 43.12 85.68 43.20
  L 84.13 43.43
  Q 83.50 43.53 83.50 42.89
  L 83.50 40.88
  Q 83.50 40.25 84.12 40.25
  L 85.75 40.25
  Q 86.25 40.25 86.25 39.75
  L 86.25 37.11
  Q 86.25 36.46 85.61 36.48
  L 84.18 36.54
  Q 83.50 36.56 83.50 35.87
  L 83.50 34.12
  Q 83.50 33.50 84.13 33.50
  L 85.75 33.50
  Q 86.25 33.50 86.25 33.00
  L 86.25 20.46
  Q 86.25 19.78 86.94 19.76
  C 93.11 19.62 108.17 18.67 104.60 30.48
  C 102.80 36.43 96.42 36.67 90.79 36.48
  Q 90.25 36.46 90.25 37.00
  Z
  M 90.25 23.37
  L 90.25 32.87
  A 0.60 0.60 0.0 0 0 90.85 33.47
  L 95.64 33.47
  A 5.35 4.72 -0.0 0 0 100.99 28.75
  L 100.99 27.49
  A 5.35 4.72 0.0 0 0 95.64 22.77
  L 90.85 22.77
  A 0.60 0.60 0.0 0 0 90.25 23.37
  Z"
/>
<path fill="#ffffff" d="
  M 160.00 76.31
  L 160.00 82.81
  C 159.33 84.33 158.74 85.85 157.66 87.15
  Q 145.53 101.83 133.29 116.43
  C 126.03 125.10 120.03 129.46 109.00 129.48
  Q 89.36 129.51 69.71 129.49
  C 64.50 129.48 61.38 131.20 58.37 135.08
  Q 58.07 135.46 58.19 135.93
  Q 59.47 141.03 55.90 144.90
  Q 47.95 153.52 38.99 161.00
  L 37.94 161.00
  C 37.24 160.53 36.47 160.37 35.88 159.77
  Q 18.57 142.21 1.25 124.66
  C 0.62 124.03 0.42 123.21 0.00 122.44
  L 0.00 121.94
  C 3.09 116.54 10.74 110.37 15.30 105.84
  C 17.99 103.17 20.15 102.06 23.76 102.42
  Q 24.29 102.48 24.57 102.02
  C 34.46 85.39 54.12 78.36 72.55 84.52
  Q 75.34 85.45 77.77 85.47
  Q 94.00 85.56 110.25 85.66
  Q 115.17 85.69 119.79 89.77
  A 0.46 0.46 0.0 0 0 120.43 89.75
  Q 129.82 79.94 139.55 70.05
  C 146.41 63.08 157.33 67.62 160.00 76.31
  Z
  M 84.79 110.73
  A 2.97 2.94 -25.7 0 1 83.02 110.12
  Q 80.29 108.01 82.50 105.32
  A 2.10 2.08 18.7 0 1 84.05 104.56
  Q 96.43 104.16 109.00 104.28
  C 119.32 104.38 117.93 91.74 110.50 91.75
  Q 93.52 91.76 76.53 91.75
  Q 74.23 91.75 71.63 90.82
  C 56.08 85.31 38.42 90.39 29.98 105.17
  Q 29.74 105.60 30.08 105.95
  L 53.90 129.80
  Q 54.28 130.18 54.67 129.81
  C 58.65 126.06 61.69 123.39 67.75 123.37
  Q 86.50 123.31 105.25 123.22
  C 115.27 123.17 120.65 121.89 126.77 114.54
  Q 138.76 100.12 150.75 85.71
  Q 153.51 82.40 154.02 80.78
  C 155.31 76.69 150.88 72.17 146.58 73.23
  Q 144.67 73.70 142.39 76.05
  Q 132.78 85.93 123.23 95.81
  Q 122.88 96.17 122.85 96.67
  Q 122.34 107.27 114.22 109.88
  C 107.99 111.89 93.39 110.78 84.79 110.73
  Z
  M 7.85 122.50
  L 38.16 153.12
  A 0.41 0.41 0.0 0 0 38.74 153.12
  L 50.99 140.99
  A 4.09 3.61 45.3 0 0 50.68 135.55
  L 25.55 110.16
  A 4.09 3.61 45.3 0 0 20.11 109.79
  L 7.86 121.92
  A 0.41 0.41 0.0 0 0 7.85 122.50
  Z"
/>
<circle fill="#ffffff" cx="71.61" cy="106.97" r="3.10"/>
</svg>
