<svg width="119" height="65" viewBox="0 0 119 65" fill="none" xmlns="http://www.w3.org/2000/svg">
<path d="M24.8249 65C22.3316 65 20.7984 64.2971 19.8568 62.7188C19.4562 62.0504 19.2255 61.2653 18.9788 60.435C18.8647 60.0477 18.7454 59.6499 18.6074 59.252L18.5517 59.0928L18.3979 59.0292C18.0796 58.8966 17.7427 58.7692 17.3873 58.6366C16.565 58.3289 15.7162 58.008 14.9337 57.5623C12.4456 56.1406 10.8515 53.9045 10.1936 50.9204C10.1565 50.7507 10.1008 50.5915 10.0477 50.4377C10.0318 50.3899 10.0159 50.3448 10 50.2971V14.6552C10.0451 14.4907 10.0875 14.3236 10.1326 14.1565C10.2308 13.7798 10.3316 13.3926 10.4562 13.0265C11.695 9.42175 14.1804 7.12732 17.8435 6.20159L17.9814 6.16711C18.1326 6.12997 18.2812 6.09284 18.4324 6.0504C18.6631 5.98409 18.7984 5.83289 18.7984 5.64721C18.8515 5.37931 18.8966 5.11671 18.9363 4.85942C19.0318 4.27321 19.1247 3.72149 19.3183 3.22546C20.0663 1.32095 21.5013 0.244032 23.5809 0.0291777C23.8408 0.00265252 24.1141 0 24.3926 0H64.8833C75.3899 0 85.8939 0 96.3979 0C99.3899 0 101.395 1.53581 101.902 4.2122C101.96 4.51724 101.979 4.8382 102.003 5.17772C102.013 5.34748 102.024 5.51724 102.04 5.69496L102.066 5.97878L102.347 6.03183C104.684 6.4695 106.544 7.42971 108.034 8.96817C109.928 10.9231 110.894 13.2042 110.902 15.7507C110.944 29.1538 110.944 39.4721 110.902 49.2042C110.883 53.6737 107.645 57.6817 103.202 58.7348C103.003 58.7825 102.806 58.8302 102.613 58.878L102.106 59.0027L102.072 59.2546C102.042 59.4668 102.019 59.6764 101.995 59.8833C101.947 60.313 101.902 60.7215 101.809 61.1088C101.31 63.1989 99.6021 64.695 97.4536 64.9178C97.0318 64.9629 96.5782 64.9841 96.1061 64.9841C88.9788 64.9841 81.8515 64.9841 74.7241 64.9841C58.0928 64.9841 41.4642 64.9841 24.8329 64.9974H24.8223L24.8249 65ZM21.2626 59.3687C21.0769 61.1883 22.0027 62.4615 23.6764 62.695C24.1088 62.756 24.5438 62.7586 24.9151 62.7586C36.7639 62.7586 48.6127 62.7586 60.4589 62.7586C72.305 62.7586 84.1565 62.7586 96.0026 62.7586C96.3979 62.7586 96.8223 62.7507 97.2414 62.695C98.679 62.4987 99.6366 61.4775 99.7427 60.0292C99.7666 59.7029 99.7639 59.3793 99.7586 59.0637C99.7586 58.9469 99.7586 58.8302 99.7586 58.7109C99.7586 57.0504 99.9098 56.8833 101.549 56.7374C105.599 56.3767 108.666 53.0902 108.679 49.0955C108.714 38.9867 108.7 28.7082 108.687 18.7692V15.8249C108.682 14.2016 108.167 12.6976 107.154 11.3528C105.538 9.20955 103.297 8.16976 100.3 8.16976C88.1963 8.18037 76.1008 8.18302 64.0106 8.18302C55.1114 8.18302 46.2122 8.18302 37.3103 8.18037H27.9284C27.4801 8.18037 27.0822 8.17241 26.7082 8.09019C26.0212 7.93899 25.8912 7.4244 25.9072 7.02122C25.9257 6.44032 26.2228 6.09814 26.7825 6.00265C27.0371 5.96021 27.305 5.95225 27.5544 5.95225H28.0053C46.5995 5.95225 65.1963 5.95225 83.7905 5.95225H99.6843L99.7003 5.59151C99.7851 3.55968 98.7586 2.33422 96.8886 2.22812C96.7639 2.22016 96.6366 2.22016 96.5119 2.22016H24.5995C24.3289 2.22016 24.0398 2.22016 23.7533 2.25199C22.3369 2.39788 21.3024 3.44562 21.1804 4.85676C21.1512 5.18568 21.1565 5.51459 21.1592 5.83289C21.1592 5.9496 21.1618 6.06366 21.1618 6.18037C21.1618 7.93634 21.0398 8.06897 19.3342 8.22281C15.305 8.58355 12.2573 11.8382 12.244 15.7958C12.2069 26.0186 12.2069 36.9337 12.244 49.1645C12.252 51.5225 13.2573 53.5225 15.2334 55.1088C17.1061 56.6127 19.2732 56.8037 20.9523 56.8037C34.6286 56.7984 48.2944 56.7958 61.9602 56.7958H92.8462C92.939 56.7958 93.3077 56.7931 93.4005 56.7931C93.6074 56.7931 93.7639 56.7984 93.9072 56.8117C94.5915 56.87 95.0186 57.2812 95.0239 57.8859C95.0292 58.4907 94.6101 58.9151 93.9257 58.9947C93.6897 59.0212 93.4403 59.0265 93.2281 59.0265H92.7772C76.061 59.0265 21.2918 59.0265 21.2918 59.0265L21.2573 59.3634L21.2626 59.3687Z" fill="white"/>
<path d="M93.0902 53.0902C90.2865 53.0902 87.8223 53.0716 85.5597 53.0345C84.8488 53.0239 84.122 52.8223 83.2838 52.5915C82.8488 52.4721 82.3979 52.3475 81.8992 52.2334L81.7029 52.1883L81.557 52.3289C80.8355 53.0186 79.5597 53.0769 78.2042 53.0769H77.695C75.4615 53.069 73.2255 53.0663 70.992 53.0663C68.7586 53.0663 66.6578 53.069 64.4881 53.0769H64.4005C63.1326 53.0769 61.8037 52.9947 60.7109 52.0106L60.4589 51.7851L60.2069 52.0106C59.1167 52.9947 57.7851 53.0769 56.5119 53.0769H56.4297C54.13 53.069 51.8276 53.0663 49.5279 53.0663C47.2281 53.0663 44.8621 53.069 42.5279 53.0769H42.4854C41.3183 53.0769 40.0875 52.9496 39.0053 52.0186L38.7533 51.8011L38.5066 52.0239C37.435 52.9973 36.0981 53.0769 34.7109 53.0769H34.5729C33.3448 53.0716 32.1194 53.0716 30.8912 53.0716H25.4297C23.7798 53.0743 22.1273 53.0716 20.4775 53.0637C18.1034 53.0531 16.4881 51.8515 16.0451 49.7692C15.9629 49.3873 15.9576 48.9655 15.9576 48.565C15.9523 37.8409 15.9523 27.1194 15.9576 16.3952C15.9576 13.5517 17.6048 11.9178 20.4748 11.9151C21.4271 11.9151 22.3793 11.9151 23.3316 11.9151C23.3316 11.9151 29.2042 11.9151 29.2096 11.9151C31.2281 11.9151 33.2493 11.9151 35.2679 11.9045H35.3077C36.6737 11.9045 37.6631 12.2228 38.5199 12.939L38.7613 13.1406L39.0027 12.9363C40.0822 12.0239 41.305 11.8992 42.3607 11.8992H42.4271C44.6923 11.9125 47.0531 11.9178 49.4483 11.9178C51.8435 11.9178 54.1671 11.9125 56.5279 11.9019H56.6605C57.8833 11.9019 59.1618 11.9814 60.1936 12.9443L60.4456 13.1777L60.7003 12.9496C61.6764 12.0769 62.7851 11.9019 64.26 11.9019H64.3846C66.7029 11.9151 69.061 11.9231 71.3926 11.9231C73.7241 11.9231 76.1273 11.9151 78.4854 11.9019H78.5544C79.6074 11.9019 80.8302 12.0239 81.9151 12.9416L82.1671 13.1538L82.4111 12.931C83.4562 11.9788 84.7294 11.9019 86.0478 11.9019H86.2414C88.2149 11.9125 90.1883 11.9178 92.1618 11.9178C93.2626 11.9178 97.6631 11.9151 98.7639 11.9151H100.34C103.361 11.9178 104.958 13.5013 104.96 16.496C104.963 27.1538 104.963 37.809 104.96 48.4668C104.96 51.4138 103.353 53.0451 100.438 53.0637C97.9549 53.0796 95.5226 53.0902 93.0875 53.0902H93.0902ZM28.0769 14.1406C25.5836 14.1406 23.0928 14.1406 20.6021 14.1432C18.7931 14.1432 18.183 14.7639 18.183 16.5942C18.183 20.3528 18.183 24.1141 18.183 27.8727V36.8382C18.183 40.7109 18.183 44.5809 18.183 48.4536C18.183 50.1645 18.8302 50.8329 20.4881 50.8382C22.9416 50.8462 25.3952 50.8488 27.8488 50.8488C30.3024 50.8488 32.8647 50.8462 35.374 50.8382C36.9761 50.8329 37.6286 50.1618 37.6313 48.5172C37.634 37.8302 37.634 27.1459 37.6313 16.4589C37.6313 14.7533 37.0186 14.1459 35.2891 14.1432C32.8859 14.1406 30.4828 14.1379 28.0769 14.1379V14.1406ZM64.1724 14.1406C62.1088 14.1406 61.5756 14.6711 61.5729 16.7135C61.5729 20.5862 61.5729 24.4615 61.5729 28.3342V36.9363C61.5729 40.7162 61.5729 44.4934 61.5729 48.2732C61.5729 50.2361 62.1645 50.8382 64.1008 50.8382C66.4881 50.8409 68.8727 50.8435 71.26 50.8435C73.6472 50.8435 76.0796 50.8435 78.4907 50.8382C80.4324 50.8382 81.0557 50.2175 81.0557 48.2918C81.0557 37.7374 81.0557 27.1857 81.0557 16.6313C81.0557 14.7454 80.4483 14.1406 78.5623 14.1379C76.2202 14.1379 73.878 14.1379 71.5332 14.1379C69.1883 14.1379 66.626 14.1379 64.1724 14.1379V14.1406ZM85.7852 14.1406C83.8223 14.1406 83.2838 14.6923 83.2838 16.695C83.2838 20.6286 83.2838 24.565 83.2838 28.5013V36.9549C83.2838 40.756 83.2838 44.557 83.2838 48.3581C83.2838 50.2361 83.8913 50.8382 85.7799 50.8409C88.191 50.8435 90.6048 50.8462 93.0159 50.8462C95.4271 50.8462 97.7852 50.8462 100.17 50.8409C102.111 50.8409 102.735 50.2255 102.737 48.313C102.737 37.7586 102.737 27.2069 102.737 16.6525C102.737 14.7533 102.138 14.1432 100.276 14.1432C97.9072 14.1432 95.5385 14.1406 93.1698 14.1406C90.8011 14.1406 88.2493 14.1406 85.7878 14.1406H85.7852ZM42.4297 14.1406C40.435 14.1406 39.8594 14.7268 39.8594 16.756C39.8594 27.244 39.8594 37.7294 39.8594 48.2175C39.8594 50.2255 40.4642 50.8382 42.443 50.8409C44.8064 50.8409 47.1724 50.8435 49.5358 50.8435C51.8992 50.8435 54.3342 50.8435 56.7321 50.8409C58.7533 50.8409 59.3395 50.2573 59.3395 48.252C59.3395 44.4695 59.3395 40.687 59.3395 36.9045V28.0371C59.3395 24.2546 59.3395 20.4721 59.3395 16.6897C59.3395 14.6897 58.7958 14.1406 56.817 14.1379C54.4775 14.1379 52.1379 14.1379 49.7984 14.1379C47.3422 14.1379 44.8859 14.1379 42.4297 14.1379V14.1406Z" fill="white"/>
<path d="M71.8515 42.4801C70.1618 42.4801 68.6737 42.4642 67.2997 42.4324C66.7798 42.4218 66.374 42.2016 66.1883 41.8329C65.9788 41.4218 66.061 40.8806 66.4058 40.382C67.0318 39.4801 67.7056 38.5862 68.3554 37.7188C68.9151 36.9735 69.4934 36.2042 70.0451 35.4297L70.4191 34.9045C71.4881 33.4005 72.5968 31.8435 73.5385 30.2202C74.0265 29.3767 74.2706 28.2546 74.1777 27.2918C74.0371 25.8647 72.809 24.7984 71.191 24.695C71.1114 24.6897 71.0318 24.687 70.9549 24.687C69.5464 24.687 68.3846 25.4775 67.8488 26.7984C67.7984 26.9257 67.7613 27.0504 67.7268 27.1724C67.6976 27.2706 67.6711 27.366 67.634 27.4615C67.435 27.9629 67.0504 28.2626 66.6021 28.2626C66.496 28.2626 66.3873 28.2467 66.2785 28.2149C65.6472 28.0292 65.3607 27.496 65.5119 26.7878C66.0477 24.2732 68.3634 22.4483 71.0159 22.4483C72.3634 22.4483 73.6101 22.9151 74.618 23.7984C76.4615 25.4111 77.0424 27.7639 76.1326 29.931C75.6764 31.0212 75.0451 32.1512 74.1512 33.4907C73.3369 34.7109 72.4509 35.9178 71.5942 37.0849C71.1963 37.6287 70.7984 38.1724 70.4032 38.7188C70.2812 38.8912 70.1645 39.0663 70.0186 39.2918C69.9443 39.4085 69.8594 39.5385 69.7613 39.687L69.3767 40.2706H73.87C74.122 40.2706 74.374 40.2653 74.626 40.2599C74.878 40.2546 75.13 40.2493 75.3846 40.2493C75.7082 40.2493 75.9761 40.2573 76.2255 40.2759C76.8674 40.321 77.3103 40.7772 77.305 41.3899C77.2997 42.0239 76.8621 42.4509 76.2202 42.4562C74.9019 42.4668 73.3714 42.4801 71.8594 42.4801H71.8515Z" fill="white"/>
<path d="M93.0027 42.5119C91.3767 42.5119 89.8409 41.8939 88.6764 40.7692C85.9072 38.0955 86.1379 34.4775 89.2997 31.0875L89.496 30.8753L89.3422 30.6313C87.6207 27.8859 87.8223 25.313 89.8939 23.5676C90.7533 22.8435 91.8594 22.4456 93.008 22.4456C94.1565 22.4456 95.3501 22.8727 96.2334 23.6499C98.2706 25.443 98.4271 27.9814 96.6658 30.6207L96.4828 30.8939L96.7295 31.1114C98.3342 32.5199 99.2149 34.2228 99.2812 36.0345C99.3422 37.7268 98.6844 39.4403 97.5199 40.6207C96.3157 41.8409 94.7109 42.5146 93 42.5146L93.0027 42.5119ZM93.0133 32.1989C90.8011 32.1989 88.9814 33.9947 88.9549 36.2042C88.9417 37.2838 89.3554 38.3024 90.1194 39.0769C90.8913 39.8568 91.9178 40.2865 93.0133 40.2865H93.0504C95.2997 40.2653 97.0557 38.4854 97.0504 36.2361C97.0451 34.0186 95.2387 32.2069 93.0265 32.1989H93.0133ZM92.9894 24.679C92.2785 24.6844 91.6127 24.9708 91.1114 25.4801C90.618 25.9841 90.3501 26.6419 90.3581 27.3342C90.374 28.7692 91.5676 29.939 93.0159 29.939C93.7454 29.9337 94.4085 29.6578 94.8992 29.1565C95.3899 28.6578 95.6578 27.9947 95.6525 27.2891C95.6419 25.8249 94.4828 24.679 93.0133 24.679H92.9894Z" fill="white"/>
<path d="M27.9496 42.5119C27.87 42.5119 27.7905 42.5119 27.7109 42.5066C24.4801 42.382 21.9735 39.9019 21.8859 36.7347C21.8064 33.9257 21.8064 31.0637 21.8859 28.2281C21.9735 25.0584 24.4775 22.5756 27.7056 22.4509C27.7851 22.4483 27.8674 22.4456 27.947 22.4456C31.0239 22.4456 33.5809 24.7082 33.8939 27.7109C34.0053 28.7878 33.9761 29.9098 33.9469 30.9947C33.9337 31.496 33.9204 32.0133 33.9204 32.5252C33.9204 33.0239 33.9337 33.5279 33.9469 34.0159C33.9761 35.0822 34.0053 36.183 33.8939 37.2387C33.5782 40.2467 31.0239 42.5119 27.9496 42.5119ZM27.8011 24.6737C25.7082 24.7347 24.1459 26.3475 24.0902 28.5066C24.0663 29.4058 24.0743 30.3157 24.0796 31.1963C24.0796 31.5915 24.0849 31.9894 24.0849 32.3846C24.0849 32.8011 24.0822 33.2202 24.0796 33.6393C24.0743 34.565 24.0663 35.5199 24.0928 36.4615C24.1485 38.6207 25.7162 40.2308 27.817 40.2838C27.8541 40.2838 27.8886 40.2838 27.9257 40.2838C30.0292 40.2838 31.6684 38.7215 31.7427 36.6472C31.8408 33.8488 31.8408 31.0371 31.7427 28.2918C31.6658 26.2255 30.0265 24.6684 27.9284 24.6684C27.8886 24.6684 27.8462 24.6684 27.8064 24.6684L27.8011 24.6737Z" fill="white"/>
<path d="M49.6552 42.5119C49.5756 42.5119 49.496 42.5119 49.4164 42.5066C46.1857 42.382 43.679 39.9019 43.5915 36.7347C43.5119 33.9257 43.5119 31.0637 43.5915 28.2281C43.679 25.0584 46.183 22.5756 49.4111 22.4509C49.4907 22.4483 49.5729 22.4456 49.6525 22.4456C52.7294 22.4456 55.2865 24.7082 55.5995 27.7109C55.7109 28.7878 55.6817 29.9072 55.6525 30.992C55.6393 31.4934 55.626 32.0133 55.626 32.5225C55.626 33.0212 55.6393 33.5252 55.6525 34.0133C55.6817 35.0796 55.7109 36.1804 55.5995 37.2361C55.2838 40.244 52.7294 42.5093 49.6552 42.5093V42.5119ZM49.5066 24.6737C47.4138 24.7347 45.8541 26.3475 45.7958 28.5066C45.7719 29.4058 45.7772 30.3183 45.7851 31.2016C45.7851 31.5968 45.7905 31.9894 45.7905 32.3846C45.7905 32.8037 45.7878 33.2202 45.7851 33.6393C45.7798 34.5623 45.7719 35.5172 45.7984 36.4615C45.8541 38.6207 47.4218 40.2308 49.5225 40.2838C49.5597 40.2838 49.5942 40.2838 49.6313 40.2838C51.7347 40.2838 53.374 38.7215 53.4483 36.6472C53.5464 33.8488 53.5464 31.0371 53.4483 28.2918C53.3714 26.2255 51.7321 24.6684 49.634 24.6684C49.5942 24.6684 49.5517 24.6684 49.5119 24.6684L49.5066 24.6737Z" fill="white"/>
</svg>
