<svg width="119" height="65" viewBox="0 0 119 65" fill="none" xmlns="http://www.w3.org/2000/svg">
<path d="M93.1243 64.9914C92.8243 64.9914 92.5215 64.9857 92.2215 64.9714C81.8734 64.5172 73.3509 57.1632 71.4967 47.0894C69.7996 37.864 74.4223 28.3588 82.7419 23.9761C82.9533 23.8647 83.159 23.7504 83.3876 23.6218L84.0361 23.2618L82.1591 18.3192L59.0287 41.7839L59.1687 42.0467C59.5744 42.8124 60.4057 44.8409 59.3801 47.1208C58.9001 48.1865 58.043 49.1636 57.3487 49.8949C56.8459 50.4264 56.6088 50.8863 56.8945 51.6663C57.2145 52.5377 57.5173 53.4976 57.843 54.689C57.9173 54.9547 58.1373 55.7633 59.0887 55.7633C59.1658 55.7633 59.2487 55.7575 59.3372 55.7461C59.4458 55.7318 59.5658 55.7261 59.7058 55.7261C59.8629 55.7261 60.02 55.7347 60.1772 55.7433L60.3372 55.7518C61.0629 55.7833 61.4371 56.1261 61.5114 56.8289C61.5457 57.1546 61.4657 57.4575 61.2828 57.6832C61.0971 57.9117 60.8172 58.0489 60.4772 58.0832C59.9086 58.1374 59.3344 58.1432 58.8487 58.1432C58.6601 58.1432 57.9001 58.1374 57.7116 58.1374H57.0887C56.8402 58.1432 56.5888 58.146 56.3402 58.146C55.9802 58.146 55.6831 58.1403 55.406 58.1289C54.3774 58.086 54.1517 57.5889 54.0717 57.1603C53.9432 56.4804 54.206 56.0375 54.8946 55.7633C55.0003 55.7204 55.0803 55.6661 55.1631 55.6061C55.1974 55.5833 55.2374 55.5547 55.2831 55.5233L55.5402 55.3576L55.4488 55.0633C55.366 54.8004 55.286 54.5347 55.206 54.269C54.9803 53.5262 54.746 52.7577 54.4774 52.0091C54.346 51.6434 53.8889 51.2977 53.5146 51.2835C51.9033 51.2177 50.5062 50.6863 49.2434 49.6521L48.7891 49.2807L48.6034 49.8378C45.575 58.8888 37.1925 64.9714 27.75 64.9714C24.273 64.9714 20.8018 64.1172 17.7076 62.4973C12.4593 59.7488 8.63088 55.1061 6.92809 49.4207C5.23388 43.7609 5.87386 37.8126 8.72802 32.67C12.5736 25.7474 19.8732 21.4448 27.7815 21.4448C32.227 21.4448 36.5925 22.8247 40.4066 25.4332L40.7123 25.6417L40.9466 25.356C41.2866 24.9446 41.6209 24.5218 41.9551 24.0989C42.6951 23.159 43.4636 22.1876 44.315 21.3476C45.575 20.102 45.875 18.7849 45.315 16.9507C44.7493 15.0936 44.2836 13.1651 43.8322 11.3024C43.6322 10.4681 43.4293 9.63386 43.2179 8.80533C43.1751 8.63391 43.1179 8.4682 43.0579 8.29392C43.0294 8.21107 42.9979 8.1225 42.9665 8.02822L42.8551 7.68823L39.8609 8.27392C39.4809 8.3482 39.0953 8.38535 38.721 8.38535C36.0668 8.38535 33.9155 6.50257 33.4869 3.8084C33.3241 2.78559 33.5726 1.78849 34.1669 1.07424C34.6869 0.448552 35.4411 0.0942816 36.2868 0.0742824C38.3639 0.0257132 40.5609 0 42.8208 0C45.0807 0 47.5377 0.0257131 50.1662 0.0771395C51.609 0.10571 52.7975 1.27137 52.9261 2.78845C53.0632 4.40266 52.1632 5.67404 50.5719 6.10545C50.0091 6.25973 49.4177 6.37401 48.8491 6.48543C48.632 6.52828 48.4148 6.57114 48.1977 6.61685C47.6606 6.72828 47.1235 6.83398 46.5578 6.94541L45.3007 7.19683L45.4035 7.60824C45.5264 8.09679 45.6435 8.58534 45.7635 9.06817C46.1607 10.6881 46.5349 12.2166 46.972 13.7623C47.1149 14.2651 47.9349 14.5365 48.3348 14.5394C50.9262 14.5594 53.4889 14.5622 55.6545 14.5622H80.7077L80.5049 14.0165C80.4192 13.7851 80.3363 13.568 80.2563 13.3623C80.0963 12.9451 79.9592 12.5823 79.8335 12.2137C79.3392 10.731 79.5478 9.18245 80.3991 7.96822C81.2477 6.76256 82.6219 6.04831 84.1704 6.01116C85.2389 5.98545 86.3018 5.97117 87.336 5.97117C88.3702 5.97117 89.4388 5.98545 90.4587 6.01402C92.0043 6.05688 93.4814 6.75399 94.51 7.92537C95.4956 9.05103 95.9727 10.5138 95.8242 11.9452C95.5213 14.8365 93.1272 17.0193 90.2587 17.0193C89.9501 17.0193 89.6387 16.9935 89.333 16.9421C88.7074 16.8393 88.3788 16.4907 88.3302 15.8793C88.2788 15.2479 88.5474 14.8451 89.1302 14.6794C89.4102 14.5994 89.7245 14.5879 90.0587 14.5765C90.1787 14.5708 90.2987 14.5679 90.4159 14.5594C92.1015 14.4536 93.37 13.2108 93.4357 11.6023C93.5043 9.95956 92.1986 8.51105 90.5901 8.44249C89.5245 8.39677 88.4245 8.37392 87.3217 8.37392C86.2189 8.37392 85.1447 8.39677 84.039 8.43963C83.3476 8.46534 82.7619 8.77104 82.3905 9.29959C81.9762 9.88242 81.8791 10.6652 82.1191 11.4452C82.2105 11.7423 82.3219 12.0338 82.4305 12.3166L86.2646 22.3533C86.2646 22.3533 87.2017 22.1705 87.5017 22.1133C88.1531 21.9847 88.7702 21.8648 89.3988 21.7533C90.5816 21.5448 91.7901 21.4419 92.99 21.4419C103.198 21.4419 112.338 28.9273 114.255 38.8554L114.692 41.1125V45.3066C114.609 45.6894 114.532 46.0751 114.455 46.458C114.286 47.2922 114.115 48.155 113.886 48.9807C111.284 58.4117 102.741 65 93.1157 65L93.1243 64.9914ZM84.5361 25.7989C80.0077 27.8531 76.5422 31.6672 74.7765 36.5384C72.9852 41.481 73.2338 46.9636 75.4594 51.5777C78.6821 58.2574 85.5503 62.5744 92.9614 62.5744C96.0585 62.5744 99.0326 61.8487 101.798 60.4202C106.498 57.9917 109.929 53.8662 111.461 48.8036C112.989 43.7552 112.426 38.4412 109.878 33.8414C106.678 28.0673 99.1069 23.5447 92.6415 23.5447C90.6701 23.5447 88.9616 23.9647 87.5588 24.7961L87.2646 24.9703L89.1073 29.8073C90.6987 33.9814 92.2901 38.1583 93.8757 42.3381C94.0985 42.9267 94.13 43.4267 93.9643 43.7838C93.85 44.0295 93.6414 44.2066 93.3414 44.3123C93.1786 44.3695 93.0243 44.398 92.8843 44.398C92.3643 44.398 91.9415 43.9781 91.6244 43.1495C91.0844 41.7382 90.5473 40.3239 90.013 38.9126C89.5787 37.7641 89.1416 36.6184 88.7045 35.4699C88.4474 34.7928 88.1817 34.1185 87.9131 33.4442L87.4188 32.1872L87.0674 32.2843C86.9989 32.3043 86.9389 32.3186 86.8903 32.33C86.7789 32.3557 86.6732 32.3814 86.5675 32.4386C86.2875 32.5929 86.0817 32.7243 85.8932 32.8557C82.0876 35.587 80.262 39.2354 80.4677 43.7038C80.6991 48.7607 83.2533 52.5291 87.8531 54.5976C89.6216 55.3918 91.3958 55.7975 93.1214 55.7975C95.8842 55.7975 98.4955 54.7862 100.89 52.7948C104.764 49.5692 106.209 45.2894 105.078 40.4154C103.901 35.3499 100.613 32.1557 95.3042 30.9186C94.3157 30.6872 93.9071 30.1701 94.0928 29.3816C94.2243 28.8187 94.6099 28.5445 95.2756 28.5445C95.4442 28.5445 95.6271 28.5645 95.8242 28.5987C103.55 30.0558 108.761 37.3241 107.689 45.1437C106.841 51.3435 102.398 56.2775 96.3727 57.7203C95.2499 57.9889 94.0957 58.126 92.9443 58.126C88.0102 58.126 83.3933 55.6833 80.5963 51.5892C77.1621 46.5665 77.1764 39.804 80.6306 34.7585C82.0134 32.7386 83.8304 31.1443 86.1846 29.8815L86.4989 29.713L84.9189 25.6217L84.5275 25.7989H84.5361ZM27.77 23.8504C23.2302 23.8504 18.9761 25.3732 15.4677 28.2559C8.43089 34.0385 6.39097 44.0952 10.6165 52.172C13.9706 58.586 20.5504 62.5715 27.7843 62.5715C29.5871 62.5715 31.3842 62.3173 33.1241 61.8144C40.478 59.6917 47.2349 51.8691 46.7663 46.018L46.7378 45.6666L42.6037 45.418L42.4151 46.118C42.3494 46.3551 42.2923 46.5637 42.2437 46.7722C40.8437 52.5434 35.9668 57.0289 30.1128 57.9375C29.3528 58.0546 28.5786 58.1146 27.81 58.1146C22.5588 58.1146 17.6305 55.3119 14.9563 50.7978C11.8764 45.6037 12.245 38.964 15.8734 34.2728C18.9247 30.3272 22.9131 28.3273 27.7272 28.3273C28.1929 28.3273 28.6729 28.3473 29.1528 28.3845C29.9214 28.4445 30.4185 28.933 30.3899 29.6044C30.3613 30.2958 29.7899 30.7586 28.9671 30.7586C28.7814 30.7586 28.6014 30.7415 28.4129 30.7244C28.21 30.7072 28.0015 30.6872 27.7843 30.6872C22.3017 30.6872 17.3733 34.3613 15.7991 39.6183C14.2363 44.8352 16.3048 50.5778 20.8303 53.5862C22.9245 54.9776 25.3416 55.7118 27.8215 55.7118C30.7013 55.7118 33.5126 54.6947 35.7383 52.8491C38.001 50.9692 39.4467 48.5607 40.0324 45.6866L40.1238 45.2323C40.1238 45.2323 34.1126 44.8266 32.5184 44.718C32.0498 44.6866 31.5813 44.6609 31.1127 44.6323C30.0042 44.5695 28.8586 44.5038 27.7472 44.3666C27.2301 44.3009 26.8529 44.0695 26.6929 43.7066C26.5215 43.3295 26.6072 42.8495 26.9215 42.3896C27.0444 42.2096 27.1901 42.0382 27.3415 41.8582L27.5015 41.6667L39.1095 27.6074L38.7696 27.3531C35.7468 25.0903 31.8441 23.8447 27.7757 23.8447L27.77 23.8504ZM53.5003 40.9896C51.3519 40.9896 49.5805 42.7353 49.5548 44.8809C49.5291 47.0465 51.2804 48.8321 53.4603 48.8607H53.5118C55.6488 48.8607 57.403 47.1094 57.4259 44.958C57.4373 43.8981 57.0402 42.9038 56.3116 42.161C55.5831 41.4153 54.5974 41.0011 53.5375 40.9925H53.5003V40.9896ZM38.1924 32.5043L38.4381 32.7643C41.0552 35.5099 42.4522 38.744 42.7122 42.6496L42.7351 43.0067L47.1578 43.2724L47.1406 42.8267C46.9435 37.5298 45.0436 33.1328 41.3294 29.3816L41.0123 29.0616L38.1896 32.5071L38.1924 32.5043ZM30.2014 42.1696L40.3095 42.8238L40.2638 42.3496C39.9724 39.2868 38.921 36.8612 36.9468 34.7156L36.6325 34.3728L30.2014 42.1667V42.1696ZM42.558 27.2074L42.8237 27.4674C46.1407 30.7244 48.3063 34.627 49.4405 39.3983L49.6662 40.3439L50.1805 39.5183C50.5176 38.9754 50.6347 38.5126 50.5376 38.1012C49.8691 35.3156 49.1634 32.49 48.4806 29.7587L48.1349 28.3759C47.8434 27.2131 47.5492 26.0531 47.2406 24.8332L46.6006 22.3076L42.5637 27.2045L42.558 27.2074ZM48.0177 17.3964C48.012 17.4449 48.0063 17.4907 48.0006 17.5278C47.9834 17.6392 47.9606 17.7649 47.9977 17.9078L48.1177 18.3878C49.6891 24.7132 51.3176 31.2529 52.9489 37.6783C53.0632 38.1269 53.5889 38.4726 53.9232 38.5783C54.6346 38.7983 55.3545 38.9754 56.1174 39.164C56.4116 39.2383 56.7145 39.3126 57.0259 39.3897L57.2516 39.4468L79.4163 17.0278H48.0549L48.0206 17.3935L48.0177 17.3964ZM43.5351 2.42846C41.0523 2.42846 38.8667 2.43704 36.8611 2.45418C36.6696 2.45418 36.4811 2.56274 36.2954 2.77416C36.2268 2.8513 35.8954 3.25129 35.9382 3.63127C36.1011 5.01121 37.2868 5.97402 38.8181 5.97402C39.061 5.97402 39.3124 5.94831 39.5609 5.89974C42.9608 5.23691 46.3692 4.55123 49.2977 3.95983C49.5291 3.91126 49.7462 3.83697 50.0176 3.73698C50.1605 3.68555 50.3205 3.62841 50.5147 3.56556L51.449 3.257L50.5662 2.81988C50.4176 2.74559 50.3062 2.68274 50.2176 2.63131C50.0319 2.5256 49.8862 2.43989 49.6919 2.43989C47.6406 2.43418 45.5893 2.42846 43.5379 2.42846H43.5351Z" fill="white"/>
</svg>
