<?xml version="1.0" encoding="UTF-8" standalone="no"?>
<!DOCTYPE svg PUBLIC "-//W3C//DTD SVG 1.1//EN" "http://www.w3.org/Graphics/SVG/1.1/DTD/svg11.dtd">
<svg xmlns="http://www.w3.org/2000/svg" version="1.1" viewBox="0.00 0.00 156.00 167.00">
<path fill="#ffffff" d="
  M 0.00 129.44
  L 0.00 123.69
  C 2.15 109.47 13.89 97.53 28.99 98.50
  C 31.85 98.68 37.00 92.64 38.97 90.60
  Q 39.34 90.22 38.94 89.87
  C 34.82 86.23 31.50 82.67 32.84 76.84
  Q 34.28 70.55 41.49 69.33
  Q 41.98 69.25 41.92 68.76
  Q 40.80 59.53 49.39 56.64
  Q 49.86 56.48 49.73 56.01
  C 47.18 46.69 52.57 41.89 61.31 41.74
  Q 61.86 41.73 61.95 41.19
  C 63.04 35.17 69.06 31.13 74.86 32.94
  C 78.78 34.16 83.13 39.16 86.29 42.44
  Q 86.74 42.90 87.19 42.44
  L 97.62 31.95
  Q 98.03 31.54 98.01 30.95
  C 97.13 10.21 115.25 -3.99 135.22 1.80
  Q 139.63 3.07 137.66 6.45
  A 0.75 0.68 87.1 0 1 137.57 6.56
  L 122.03 22.08
  Q 121.73 22.37 121.79 22.78
  L 123.02 31.15
  A 1.03 1.03 0.0 0 0 123.89 32.02
  L 132.07 33.20
  Q 132.59 33.27 132.96 32.90
  Q 140.28 25.62 147.56 18.31
  C 149.81 16.05 152.02 16.14 153.04 19.33
  C 159.41 39.14 145.12 57.68 124.37 56.91
  Q 123.87 56.89 123.49 57.23
  L 119.77 60.60
  Q 119.25 61.07 119.75 61.56
  C 127.86 69.40 127.27 80.21 128.69 93.26
  Q 129.31 99.04 133.91 104.46
  Q 134.28 104.90 134.58 104.41
  C 136.21 101.74 138.23 101.78 140.36 103.96
  Q 147.47 111.24 154.85 118.24
  A 1.63 1.62 34.1 0 1 155.21 120.09
  Q 153.96 122.79 151.69 124.95
  Q 131.38 144.33 111.18 163.85
  C 109.77 165.21 109.00 167.12 106.76 165.16
  Q 98.65 158.05 91.43 149.85
  A 1.78 1.78 0.0 0 1 91.54 147.39
  L 93.60 145.43
  Q 93.97 145.08 93.61 144.71
  L 65.20 116.31
  Q 64.76 115.87 64.31 116.31
  L 56.93 123.69
  Q 56.49 124.14 56.52 124.77
  C 58.26 161.61 4.69 166.16 0.00 129.44
  Z
  M 135.66 37.51
  C 133.72 39.53 122.88 37.03 120.00 36.61
  A 1.91 1.91 0.0 0 1 118.37 34.98
  L 116.38 21.16
  Q 116.30 20.58 116.71 20.16
  L 130.44 6.44
  Q 130.92 5.96 130.25 5.85
  C 115.71 3.61 102.86 14.60 103.21 29.35
  C 103.35 35.37 96.73 40.31 90.67 46.08
  Q 90.22 46.51 90.66 46.94
  L 93.58 49.80
  Q 93.94 50.14 94.33 49.83
  C 103.16 42.80 110.01 51.29 115.51 57.27
  Q 115.94 57.74 116.29 57.21
  C 118.88 53.32 121.68 51.83 126.57 51.82
  C 141.44 51.80 150.67 38.93 149.21 24.69
  Q 149.15 24.10 148.72 24.51
  Q 142.01 30.89 135.66 37.51
  Z
  M 83.17 60.98
  L 90.11 54.04
  A 0.24 0.24 0.0 0 0 90.11 53.70
  L 75.82 39.40
  A 5.34 5.15 45.0 0 0 68.40 39.27
  L 68.40 39.27
  A 5.34 5.15 45.0 0 0 68.53 46.69
  L 82.83 60.98
  A 0.24 0.24 0.0 0 0 83.17 60.98
  Z
  M 59.92 60.00
  C 63.01 62.93 65.88 66.00 68.91 68.94
  C 72.46 72.39 74.61 75.28 79.28 72.18
  Q 79.86 71.78 79.54 71.16
  Q 78.13 68.39 79.54 65.67
  Q 79.80 65.18 79.41 64.78
  Q 72.01 57.38 64.60 49.98
  Q 62.36 47.74 60.84 47.22
  C 57.96 46.23 54.82 48.06 54.20 51.05
  C 53.56 54.13 57.13 57.35 59.92 60.00
  Z
  M 103.46 106.77
  Q 92.90 98.26 97.25 85.52
  C 98.40 82.18 100.92 79.65 103.38 77.10
  Q 103.74 76.72 103.78 76.20
  Q 103.90 74.29 102.38 73.50
  C 100.21 72.36 98.41 74.89 97.02 75.68
  Q 90.58 79.35 83.82 75.94
  Q 83.40 75.73 82.99 75.96
  L 78.15 78.62
  Q 77.77 78.83 77.91 79.24
  C 80.33 86.35 76.58 91.19 69.88 93.21
  Q 69.36 93.36 69.40 93.91
  C 70.24 104.47 59.16 110.10 51.59 102.64
  Q 45.97 97.12 43.27 94.24
  Q 42.90 93.83 42.52 94.23
  C 38.67 98.30 34.48 103.63 30.09 103.47
  C -1.44 102.30 -3.21 148.08 26.83 149.85
  C 41.38 150.71 51.47 139.42 51.55 125.00
  C 51.56 122.74 52.23 120.92 53.70 119.45
  Q 72.52 100.65 91.28 81.79
  Q 94.01 79.05 96.18 81.85
  A 2.07 2.07 0.0 0 1 96.01 84.58
  L 68.75 111.86
  Q 68.37 112.24 68.75 112.62
  L 97.06 140.94
  Q 97.50 141.37 97.94 140.94
  L 130.08 108.80
  Q 130.52 108.35 130.12 107.87
  C 122.69 99.04 123.04 88.78 121.79 78.20
  C 120.49 67.17 113.50 62.10 105.51 54.47
  C 103.22 52.29 100.02 51.36 97.69 53.69
  Q 91.19 60.18 84.84 66.83
  C 81.59 70.24 88.71 72.59 90.94 72.45
  C 94.73 72.22 96.64 68.45 100.55 68.09
  C 105.89 67.59 110.54 73.06 108.48 78.25
  Q 108.00 79.48 105.52 82.20
  Q 95.92 92.74 106.89 103.34
  A 2.01 2.00 39.3 0 1 107.15 105.91
  C 106.15 107.37 105.08 108.08 103.46 106.77
  Z
  M 72.1165 86.4485
  A 5.05 5.05 0.0 0 0 72.1165 79.3067
  L 55.6833 62.8735
  A 5.05 5.05 0.0 0 0 48.5415 62.8735
  L 48.3435 63.0715
  A 5.05 5.05 0.0 0 0 48.3435 70.2133
  L 64.7767 86.6465
  A 5.05 5.05 0.0 0 0 71.9185 86.6465
  L 72.1165 86.4485
  Z
  M 46.5182 75.6156
  A 5.07 5.07 0.0 0 0 39.3481 75.6031
  L 39.1640 75.7867
  A 5.07 5.07 0.0 0 0 39.1515 82.9567
  L 55.5418 99.4044
  A 5.07 5.07 0.0 0 0 62.7119 99.4169
  L 62.8960 99.2333
  A 5.07 5.07 0.0 0 0 62.9085 92.0633
  L 46.5182 75.6156
  Z
  M 148.62 120.02
  A 0.36 0.36 0.0 0 0 148.62 119.51
  L 137.90 108.74
  A 0.36 0.36 0.0 0 0 137.39 108.74
  L 97.99 148.13
  A 0.36 0.36 0.0 0 0 97.99 148.63
  L 107.76 158.72
  A 0.36 0.36 0.0 0 0 108.27 158.73
  L 148.62 120.02
  Z"
/>
<path fill="#ffffff" d="
  M 11.69 121.44
  L 22.90 110.23
  A 1.85 1.84 -59.8 0 1 24.69 109.75
  L 39.71 113.76
  A 2.13 2.13 0.0 0 1 41.21 115.26
  L 45.31 130.51
  A 1.50 1.49 -30.0 0 1 44.92 131.95
  L 33.80 143.08
  A 2.09 2.08 -60.1 0 1 31.82 143.62
  Q 25.09 141.89 18.01 139.95
  Q 15.66 139.31 15.15 137.42
  Q 13.16 130.04 11.28 122.98
  A 1.59 1.59 0.0 0 1 11.69 121.44
  Z
  M 36.77 118.63
  A 0.60 0.60 0.0 0 0 36.35 118.21
  L 25.51 115.29
  A 0.60 0.60 0.0 0 0 24.92 115.45
  L 17.00 123.38
  A 0.60 0.60 0.0 0 0 16.84 123.96
  L 19.76 134.78
  A 0.60 0.60 0.0 0 0 20.18 135.20
  L 31.04 138.14
  A 0.60 0.60 0.0 0 0 31.62 137.99
  L 39.58 130.09
  A 0.60 0.60 0.0 0 0 39.74 129.50
  L 36.77 118.63
  Z"
/>
</svg>
