<svg width="119" height="65" viewBox="0 0 119 65" fill="none" xmlns="http://www.w3.org/2000/svg">
<path d="M39.8841 65C38.1423 65 36.3363 64.654 34.5128 63.9697C29.0365 61.9187 25.7822 57.7547 25.1038 51.9285C24.6119 47.71 25.8794 43.6606 28.671 40.5249C31.4335 37.4222 35.4051 35.6435 39.5692 35.6435C40.0649 35.6435 40.5684 35.6687 41.0661 35.7173C42.1197 35.8223 43.1831 36.1256 44.2134 36.4191C44.3962 36.4716 44.5769 36.5222 44.7577 36.5727C45.0804 36.6621 45.3254 36.8429 45.444 37.0781C45.549 37.2862 45.5567 37.5233 45.4673 37.7644C45.3332 38.1221 45.0552 38.3126 44.6605 38.3126C44.4953 38.3126 44.3126 38.2795 44.1182 38.2135C42.4949 37.6672 40.9067 37.3892 39.3962 37.3892C36.486 37.3892 33.8052 38.4079 31.4238 40.416C27.3355 43.8628 25.8814 48.3923 27.2189 53.5128C28.5427 58.5867 31.9972 61.8254 37.2053 62.881C38.0431 63.0502 38.8985 63.1376 39.748 63.1376C44.6042 63.1376 49.0851 60.3091 51.1633 55.9331C51.3071 55.6299 51.3363 55.2138 51.2469 54.6967C51.1633 54.2049 51.0408 53.7247 50.9125 53.2173C50.8581 53.0054 50.8036 52.7897 50.7492 52.5661L50.7045 52.3756L49.4506 52.2453C48.1637 52.1093 46.832 51.9693 45.5042 51.8604H45.4692C45.1388 51.8604 44.8161 52.2531 44.715 52.4631C43.6924 54.6229 41.8534 55.8126 39.54 55.8126C39.4525 55.8126 39.3651 55.8126 39.2756 55.8068C36.5423 55.7018 34.2678 53.4584 34.0968 50.6979C33.9179 47.7916 35.893 45.2333 38.5952 44.8736C38.7857 44.8484 38.984 44.8348 39.2018 44.8348C39.8025 44.8348 40.4323 44.9339 41.0427 45.0292C41.2021 45.0544 41.3596 45.0778 41.5171 45.1011C41.6415 45.1186 41.7426 45.1322 41.8417 45.1322C42.1411 45.1322 42.3627 45.0097 42.561 44.7376C43.5116 43.4195 44.4661 42.1034 45.4206 40.7873C46.8767 38.7811 48.3814 36.7068 49.8472 34.6559C50.0727 34.341 50.0941 33.8219 49.9852 33.5012C49.5769 32.2939 49.1668 31.2208 48.7294 30.2236C48.5486 29.8114 48.2142 29.4654 47.9187 29.1621L47.8546 29.096C47.2286 28.4487 46.4296 28.367 45.8036 28.367C45.757 28.367 45.7084 28.367 45.6598 28.367C45.0357 28.3787 44.367 28.3904 43.708 28.3904C42.6524 28.3904 41.7795 28.3612 40.963 28.299C39.748 28.2076 38.7955 27.1579 38.7488 25.8612C38.7002 24.5412 39.5245 23.4545 40.7978 23.161C40.9067 23.1357 41.0155 23.1124 41.1302 23.089L41.5579 22.9977L41.5112 22.7352C41.1594 20.7484 41.7348 18.8569 43.3172 16.7807C44.6994 14.967 46.2138 13.229 47.6446 11.6174C50.2554 8.68002 53.6885 7.18896 57.8526 7.18896C57.9459 7.18896 58.0392 7.18896 58.1345 7.1909C59.8452 7.21812 61.5793 7.34642 63.255 7.47084C64.0015 7.52527 64.7733 7.58359 65.5276 7.63025L65.8036 7.64775L65.8192 7.3717C65.825 7.26477 65.8192 7.14813 65.8153 7.02566C65.8056 6.76128 65.792 6.4619 65.8872 6.24028C66.5735 4.62869 66.0058 3.22706 65.5198 2.31337C65.4343 2.15397 65.3409 2.00039 65.2496 1.85264C65.1621 1.70879 65.0785 1.57465 65.0046 1.43468C64.8258 1.10226 64.8102 0.740669 64.9599 0.466563C65.0843 0.239114 65.3137 0.101089 65.6053 0.0797045C66.3266 0.0252722 66.9817 0 67.6116 0C71.2294 0 73.9335 0.90591 76.1186 2.84992C78.0606 4.57621 78.846 6.81376 78.4533 9.49845C78.2725 10.7348 78.1675 10.8243 76.8417 10.8418L76.5968 10.8456L76.5132 11.6388C76.4665 12.0743 76.4218 12.5117 76.3771 12.9491C76.2974 13.7344 76.033 13.9988 75.3332 13.9988H75.201C74.6411 13.9988 74.2367 14.2049 73.9315 14.654C73.811 14.8309 73.6652 14.9942 73.5097 15.1652L73.4902 15.1866C73.0801 15.6454 72.561 15.8962 72.0303 15.8962C71.4257 15.8962 70.8503 15.5657 70.4556 14.9883C70.4187 14.9339 70.3818 14.8756 70.3293 14.792L70.2088 14.6015L69.7422 13.8666L69.7014 14.7356C69.6061 16.7438 69.6469 18.4292 70.1621 20.138C70.7375 22.0529 71.5734 23.2426 72.9576 24.1174C73.4786 24.446 74.0443 24.7687 74.7325 24.7687C74.9774 24.7687 75.2243 24.7298 75.4867 24.6501C77.0206 24.1855 78.5816 24.1233 79.9055 24.1233C80.4265 24.1233 80.9572 24.1349 81.4704 24.1446C81.9856 24.1544 82.5202 24.166 83.0451 24.166H83.1364C83.4591 24.166 83.7119 24.271 83.8654 24.4712C84.0346 24.689 84.0754 25.0058 83.9821 25.3616C83.9043 25.6532 83.813 25.9487 83.7235 26.2364C83.6555 26.4522 83.5874 26.6699 83.5252 26.8876C83.5058 26.9537 83.4864 27.0198 83.4669 27.0859C83.2783 27.7216 83.084 28.3768 83.4805 29.1699C83.8752 29.9592 83.3075 30.7232 83.0451 31.0148C82.5105 31.6096 81.9545 32.187 81.3946 32.7313C80.8328 33.2776 80.2088 33.5537 79.5381 33.5537C79.2329 33.5537 78.916 33.4953 78.5972 33.3826C77.5921 33.0249 76.5832 32.6205 75.6073 32.2317C75.1796 32.0607 74.7539 31.8915 74.3262 31.7243L73.7585 31.5027L74.5517 33.68C74.9988 34.9067 75.4556 36.1625 75.9125 37.4203L76.4996 39.0397C77.2091 40.9934 77.942 43.0113 78.6399 45.0058C78.8266 45.5404 79.0909 45.8806 79.8297 45.9195C82.0886 46.0381 83.8674 47.8169 83.9646 50.0583C84.0637 52.3231 82.4755 54.2807 80.2671 54.6131C80.0474 54.6462 79.8238 54.6617 79.6042 54.6617C77.631 54.6617 75.9028 53.3359 75.4012 51.4366C74.9424 49.7026 75.3993 48.1998 76.7542 46.9712C76.9856 46.7632 77.3005 46.4755 77.0847 45.8865C76.0097 42.9549 74.9308 39.9689 73.8868 37.0801C73.5077 36.0323 73.1306 34.9844 72.7515 33.9366C72.7224 33.8569 72.6835 33.7908 72.6388 33.7131C72.6174 33.6761 72.5921 33.6314 72.563 33.5809L72.3491 33.1882L61.7562 48.5226L61.8806 48.682C61.8942 48.6995 61.9039 48.715 61.9137 48.7286C61.9486 48.7831 62.0031 48.8666 62.1139 48.9055C62.9459 49.1952 63.5408 49.689 63.8324 50.3344C64.1395 51.0148 64.1084 51.8526 63.7391 52.7586C63.6438 52.9938 63.5758 53.2368 63.5097 53.4701C63.4902 53.542 63.4689 53.6139 63.4494 53.6858C62.8584 55.7115 61.4199 57.2395 59.1707 58.2251C58.4494 58.542 57.7068 58.7014 56.9642 58.7014C55.8056 58.7014 54.6333 58.3145 53.4825 57.5544C53.3892 57.4922 53.2997 57.4261 53.2084 57.3581L52.8779 57.117L52.7126 57.3114C52.3627 57.7236 52.0303 58.1454 51.7076 58.5517C50.9883 59.4615 50.3079 60.3188 49.5011 61.0381C46.5501 63.6645 43.3114 64.9961 39.8744 64.9961L39.8841 65ZM52.771 51.9285C52.4113 53.8394 53.4825 55.7834 55.3176 56.5513C55.8308 56.7652 56.4082 56.8799 56.9875 56.8799C58.3036 56.8799 59.5031 56.3142 60.1193 55.4005L60.3293 55.0914L59.9716 54.9825C59.6158 54.8756 59.262 54.7648 58.9082 54.6559C58.1209 54.4129 57.3083 54.1621 56.5015 53.9366L56.379 53.9036C55.1154 53.5537 53.9238 53.2232 53.292 51.8624L52.9304 51.0828L52.771 51.9265V51.9285ZM39.5925 46.563C37.8798 46.563 36.4276 47.6633 35.9786 49.3021C35.4401 51.2675 36.5579 53.2796 38.5194 53.8803C38.8635 53.9852 39.2251 54.0397 39.5944 54.0397C41.1185 54.0397 42.4755 53.1551 42.8934 51.8896L43.0004 51.5669L42.6621 51.5299C42.3569 51.4949 42.0517 51.4638 41.7484 51.4327C41.0816 51.3628 40.3895 51.2908 39.7189 51.1936C39.2484 51.1256 38.9218 50.9331 38.7993 50.6512C38.6749 50.3635 38.7605 49.9864 39.0423 49.5879C39.4311 49.0338 39.8258 48.4934 40.2437 47.9199C40.4323 47.6614 40.6228 47.4009 40.8172 47.1306L41.0525 46.804L40.6617 46.703C40.306 46.6096 39.9483 46.563 39.5925 46.563ZM55.0124 49.8192C54.7675 50.3655 54.7286 50.7815 54.886 51.1275C55.0571 51.5008 55.4498 51.7671 56.1205 51.9693C56.4393 52.0645 56.7562 52.1617 57.075 52.257C57.5435 52.3989 58.012 52.5408 58.4825 52.6789C59.1395 52.8733 59.7966 53.0638 60.4673 53.2582L61.6221 53.5925L61.7018 53.334C61.7542 53.1629 61.8067 52.9996 61.8573 52.8402C61.9875 52.4339 62.1081 52.0509 62.2053 51.6582C62.25 51.4755 62.2344 50.9623 61.9331 50.8301C61.7329 50.7426 61.5346 50.6493 61.3343 50.556C60.6909 50.2547 60.026 49.9417 59.3203 49.8348C58.3989 49.6967 57.4813 49.687 56.5093 49.6773C56.1049 49.6734 55.6889 49.6695 55.2729 49.654L55.0882 49.6481L55.0124 49.8173V49.8192ZM77.6213 48.6936C76.8164 49.8134 76.8301 51.0498 77.6563 52.0004C78.1442 52.5622 78.8596 52.8849 79.6178 52.8849C80.0435 52.8849 80.4654 52.7799 80.8367 52.5817C81.8981 52.014 82.4288 50.7951 82.1275 49.617C81.8728 48.6159 81.0233 47.8907 80.1077 47.8907H79.7189L79.8355 48.2582C79.8977 48.437 79.9638 48.6139 80.028 48.7908C80.1757 49.1913 80.3137 49.5684 80.4284 49.9592C80.5839 50.486 80.3818 50.9526 79.9269 51.1198C79.8161 51.1606 79.7072 51.182 79.6003 51.182C79.2406 51.182 78.9374 50.9428 78.7663 50.5268C78.6127 50.1555 78.4727 49.7726 78.325 49.3663C78.255 49.1719 78.1811 48.9716 78.1034 48.7617L77.9226 48.2776L77.6213 48.6975V48.6936ZM43.7838 46.0731C43.7838 46.0731 44.0696 46.8215 44.1784 47.1112C44.4992 47.9588 44.8025 48.7578 45.1193 49.5373C45.2126 49.7648 45.5004 50.0292 45.7822 50.0622C47.2305 50.2333 48.7955 50.3946 50.5626 50.5599C50.582 50.5599 50.6014 50.5618 50.6228 50.5618C50.8425 50.5618 51.138 50.4568 51.2799 50.2566C52.4016 48.6839 52.4735 48.2076 51.8709 46.3433C51.8495 46.2753 51.8281 46.2053 51.8067 46.1353C51.7329 45.8904 51.657 45.6396 51.5248 45.4063C50.8872 44.2924 50.2593 43.2057 49.5944 42.1579C49.3651 41.7982 49.3028 41.3997 49.4292 41.0945C49.5225 40.8631 49.713 40.7076 49.9794 40.6454C50.061 40.626 50.1407 40.6163 50.2146 40.6163C50.5081 40.6163 50.7667 40.7679 51.0291 41.0925C52.1236 42.4456 52.9556 43.9755 53.5738 45.7718L53.6438 45.974L54.2931 45.9195L54.3048 45.6785C54.3087 45.5968 54.3223 45.5074 54.3339 45.4141C54.367 45.1827 54.4039 44.9203 54.3145 44.6792C53.5311 42.5972 52.7418 40.5579 51.9039 38.3981L51.0194 36.112L43.7838 46.077V46.0731ZM41.2507 49.5743L43.4747 49.8075L42.5882 47.7411L41.2507 49.5743ZM53.5777 30.7232L55.2807 31.7166C56.2896 32.3056 57.2772 32.881 58.2647 33.4526C59.2504 34.0222 59.3067 34.1582 59.0015 35.2586L58.3911 37.4592C57.5513 40.4802 56.7134 43.5012 55.8755 46.5241C55.825 46.7088 55.7861 46.8915 55.7375 47.1229C55.7123 47.2414 55.685 47.3736 55.652 47.5253L55.5839 47.8344C55.5839 47.8344 56.416 47.8985 56.6629 47.916C57.2402 47.9588 57.7846 47.9977 58.3269 48.0502C58.3755 48.054 58.4222 48.0579 58.4669 48.0579C59.056 48.0579 59.264 47.6497 59.3787 47.2939C61.068 42.0782 62.6563 37.2239 64.2309 32.4572C64.5011 31.6407 64.3067 30.9992 63.6185 30.4393C62.6096 29.619 61.5968 28.7694 60.6151 27.9471C60.1446 27.5525 59.6761 27.1598 59.2037 26.7671C59.0015 26.598 58.7935 26.4347 58.5816 26.2656L58.0937 25.8748L53.5777 30.7232ZM70.1718 32.4047C69.8511 32.4514 69.5536 32.5039 69.2659 32.5564C68.6633 32.6633 68.1442 32.7566 67.6213 32.7586C66.3849 32.7624 65.7259 33.297 65.3507 34.5995C64.7791 36.5766 64.1162 38.5634 63.4747 40.4879C63.2123 41.2753 62.9498 42.0626 62.6913 42.8499L62.6174 43.0754L63.1773 43.3515L70.7997 32.3114L70.1738 32.4028L70.1718 32.4047ZM56.2546 34.4926C55.4051 34.5723 54.5789 34.7006 53.7041 34.8348C53.4203 34.8775 53.1364 34.9222 52.8468 34.965L52.5046 35.0156L55.2496 42.1073L55.8192 40.0622C56.2682 38.4506 56.694 36.9285 57.0808 35.3985C57.1158 35.2566 57.0633 35.0972 56.9175 34.9106C56.8631 34.8406 56.5773 34.4926 56.2877 34.4926H56.2527H56.2546ZM51.5035 32.0295C51.5734 32.5661 51.6609 33.2329 52.2713 33.2329C52.4969 33.2329 52.7632 33.1318 53.0937 32.9782L53.5622 32.7624L51.4296 31.4561L51.5035 32.0276V32.0295ZM65.7375 21.9984L65.8853 22.3134C65.9825 22.5194 66.0797 22.7197 66.1769 22.916C66.3888 23.3495 66.589 23.7597 66.7523 24.1816C67.0206 24.8736 67.4599 25.3694 68.1811 25.7854C69.2426 26.3997 70.3137 27.0432 71.3479 27.6652C72.701 28.4798 74.1026 29.3196 75.5023 30.1108C76.4432 30.6415 77.4677 31.04 78.4591 31.425C78.6322 31.493 78.8052 31.5591 78.9782 31.6271C79.1279 31.6855 79.2892 31.6991 79.3962 31.6991C79.6839 31.6991 79.9502 31.6174 80.1135 31.4813C80.5334 31.1256 80.9105 30.7251 81.276 30.3383C81.414 30.1925 81.5521 30.0467 81.6881 29.9047L81.8281 29.7609L81.7329 29.584C81.4801 29.1116 81.1516 28.8802 80.7278 28.8802C80.5917 28.8802 80.4459 28.9036 80.2826 28.9522C79.9094 29.063 79.5147 29.1466 79.1357 29.2302C78.7955 29.304 78.4436 29.3799 78.0995 29.4732C77.9595 29.5121 77.8312 29.5295 77.7049 29.5295C77.3997 29.5295 77.1081 29.4149 76.7873 29.1719C76.3927 28.8705 75.998 28.5692 75.6034 28.2659C74.1357 27.1404 72.6174 25.9759 71.07 24.9028C70.0435 24.1913 69.0676 23.3301 68.8752 21.8604C68.8577 21.7263 68.7721 21.6446 68.708 21.5844C68.6905 21.5688 68.673 21.5513 68.6555 21.5319L68.5505 21.4114L65.7395 21.9984H65.7375ZM62.5843 20.7232C62.4813 20.7232 62.3666 20.7368 62.2383 20.764C61.7173 20.8729 61.1788 20.9584 60.6559 21.04C60.374 21.0848 60.0941 21.1295 59.8141 21.1781C59.1298 21.2967 58.4475 21.4172 57.7185 21.5455L56.1652 21.8196L56.8456 22.4067C56.9797 22.5233 57.0769 22.6069 57.1741 22.6886L59.2309 24.4226C60.7881 25.7348 62.3452 27.047 63.8985 28.3631C64.0346 28.4778 64.1745 28.5925 64.3126 28.7053C65.0941 29.341 65.8308 29.9397 66.0388 30.9467L66.0913 31.2014L71.206 30.4452L71.379 29.8931L71.2274 29.7764C71.1671 29.7298 71.1088 29.6812 71.0486 29.6326C70.9105 29.5179 70.7686 29.4012 70.6053 29.3021C70.1407 29.0202 69.6722 28.7442 69.2056 28.4662C68.2939 27.9257 67.353 27.3678 66.4471 26.7885C66.1069 26.5708 65.7822 26.2131 65.5995 25.8554C64.9424 24.5568 64.2737 23.1435 63.498 21.4036C63.3678 21.1139 63.1325 20.729 62.5824 20.729L62.5843 20.7232ZM46.0213 16.2675C45.0746 17.3406 44.0171 18.6159 43.4494 20.1963C42.9479 21.5921 43.1986 22.813 44.1979 23.8278C46.2624 25.9215 48.6283 27.4844 51.136 29.1369L52.0536 29.7434L56.7406 24.7123L54.8899 23.1687C53.5194 22.0276 52.2247 20.9487 50.9144 19.8445C50.6014 19.5801 50.1485 19.0494 50.6384 18.4642C50.8114 18.2582 51.0175 18.1532 51.2546 18.1532C51.5015 18.1532 51.7815 18.2698 52.0614 18.4876C52.2869 18.6645 52.5085 18.8453 52.7301 19.026C53.1053 19.3313 53.4922 19.6481 53.8946 19.9358C54.1318 20.1069 54.4506 20.2119 54.7266 20.2119C54.7791 20.2119 54.8297 20.208 54.8783 20.2002C57.701 19.7512 60.5198 19.271 62.9051 18.8608C63.2434 18.8025 63.4611 18.7772 63.6322 18.7772C64.0404 18.7772 64.2134 18.89 64.6508 19.6851C64.7869 19.932 65.1368 20.2061 65.4245 20.2061C65.4479 20.2061 65.4692 20.2061 65.4906 20.2022C66.0777 20.1186 66.6629 19.9883 67.2286 19.8639C67.4327 19.8192 67.6349 19.7745 67.839 19.7317L68.0937 19.6773L68.0548 19.4207C68.0237 19.2088 67.9867 19.0027 67.9498 18.7986C67.874 18.3709 67.8021 17.9666 67.7865 17.5661C67.7671 17.0121 67.771 16.4463 67.7768 15.8981C67.7826 15.1594 67.7885 14.3974 67.7379 13.645C67.6524 12.4106 67.1741 11.2578 66.3538 10.3149C66.0855 10.0078 65.5995 9.62675 65.1096 9.56843C63.185 9.33515 61.0019 9.06882 58.8771 8.96384C58.6049 8.95023 58.3308 8.9444 58.0645 8.9444C53.6516 8.9444 50.1193 10.8281 47.5668 14.5451L47.423 14.7551L47.6213 14.9145C47.7807 15.0428 47.9401 15.1691 48.0995 15.2955C48.4455 15.5715 48.8052 15.8554 49.1454 16.145C49.6353 16.5591 49.7227 17.0587 49.3767 17.4806C49.2018 17.6944 48.9899 17.8033 48.7469 17.8033C48.5039 17.8033 48.2628 17.7022 48.014 17.5117C47.6485 17.2317 47.2908 16.944 46.9137 16.6407C46.7465 16.5066 46.5773 16.3705 46.4024 16.2325L46.1983 16.0692L46.0252 16.2656L46.0213 16.2675ZM79.2173 25.9195C78.4825 25.9195 77.6115 25.9603 76.7231 26.2558L76.3557 26.3783L76.5909 26.6855C77.0575 27.292 77.5882 27.5875 78.2084 27.5875C78.4572 27.5875 78.7158 27.5428 79.0035 27.4475C79.402 27.3173 79.8258 27.257 80.2729 27.1948C80.5665 27.154 80.8678 27.1112 81.1652 27.047C81.3693 27.0023 81.519 26.8643 81.6512 26.7418C81.6959 26.6991 81.7406 26.6582 81.7873 26.6213L81.97 26.4833L81.6843 25.9215L81.5054 25.9312C81.3149 25.9409 81.1088 25.9448 80.8756 25.9448C80.6014 25.9448 80.3273 25.939 80.0532 25.9312C79.7733 25.9254 79.4934 25.9176 79.2134 25.9176L79.2173 25.9195ZM41.9331 24.8542C41.7601 24.8542 41.5793 24.8756 41.3946 24.9203C41.1516 24.9786 40.9727 25.1633 40.8133 25.3247C40.7511 25.3888 40.6948 25.4471 40.6384 25.4957L40.4032 25.694L40.6267 25.9059C40.6831 25.9603 40.7434 26.0303 40.8056 26.1061C40.9747 26.3083 41.1652 26.5377 41.4374 26.5708C41.7154 26.6038 42.0089 26.6174 42.3899 26.6174C42.5882 26.6174 42.7923 26.6135 43.0023 26.6096C43.22 26.6058 43.4436 26.6019 43.6769 26.6019H44.1745L43.9121 26.18C43.3542 25.2877 42.7088 24.8542 41.937 24.8542H41.9331ZM70.5276 11.6874C70.7453 11.6874 70.9067 11.7749 71.0525 11.9693C71.2916 12.29 71.4607 12.6808 71.6395 13.0949C71.7251 13.2932 71.8145 13.4973 71.9137 13.7033L72.0983 14.0824L72.3724 13.7617C72.4832 13.6314 72.5863 13.5012 72.6854 13.3748C72.8934 13.1104 73.0898 12.8616 73.3172 12.6769C73.533 12.5019 73.7974 12.3736 74.1046 12.2259C74.2542 12.154 74.4098 12.0781 74.5692 11.9926L74.6994 11.9226L74.921 9.57815L74.54 9.67924C73.8285 9.86586 73.1287 9.96112 72.458 9.96112C71.3188 9.96112 70.2476 9.70062 69.1823 9.16407C69.0987 9.12325 69.0054 9.10187 68.8965 9.10187C68.7877 9.10187 68.6827 9.12131 68.5777 9.14075C68.5 9.15436 68.4261 9.16796 68.3581 9.17379L67.9518 9.20296L69.3417 12.0568L69.6586 11.9304C69.958 11.8118 70.2651 11.6874 70.5276 11.6874ZM74.6489 7.84409C75.1018 7.84409 75.5276 7.97628 75.9494 8.25039C76.0486 8.31454 76.1535 8.34565 76.2449 8.37286C76.278 8.38258 76.311 8.3923 76.3441 8.40397L76.6843 8.52644L76.7134 8.1668C76.8184 6.86042 76.1808 5.34409 75.0882 4.3021C72.9654 2.27838 70.2865 1.88764 67.7107 1.76905L67.2908 1.74961L67.4424 2.1423C68.0723 3.78694 68.1753 4.99417 67.7865 6.18002L67.7126 6.40552L68.6749 6.88958C69.2115 7.1598 69.7305 7.4203 70.2515 7.67496C70.9825 8.03266 71.7115 8.2154 72.423 8.2154C72.8604 8.2154 73.292 8.14541 73.708 8.00933C74.0462 7.89852 74.3553 7.84409 74.6489 7.84409Z" fill="white"/>
<path d="M79.6275 64.9533C73.6302 64.9533 68.2958 61.3647 66.035 55.8126C64.8122 52.8091 64.6294 49.4285 65.5159 46.2908C66.4043 43.1532 68.3308 40.3791 70.9416 38.4778L70.965 38.4623C71.1497 38.3282 71.3227 38.2018 71.5074 38.1143C71.6512 38.0463 71.7892 38.0132 71.9175 38.0132C72.1683 38.0132 72.3899 38.1454 72.5766 38.404C72.8487 38.7811 72.8196 39.1641 72.491 39.514C72.3588 39.654 72.1936 39.7726 72.0186 39.897C71.9389 39.9533 71.8612 40.0097 71.7834 40.068C67.6621 43.2193 65.7997 48.5984 67.1508 53.4545C68.6341 58.7869 72.2713 62.0859 77.6699 62.9957C78.3464 63.1104 79.0385 63.1668 79.7227 63.1668C86.0019 63.1668 91.4218 58.5031 92.3277 52.3173C93.3775 45.1652 88.6905 38.6975 81.659 37.5914C81.1924 37.5175 80.72 37.4786 80.2612 37.4397C80.0474 37.4222 79.8355 37.4047 79.6217 37.3834L79.3359 37.3542L79.3301 37.4611H78.9043C78.7682 37.4611 78.6322 37.4611 78.498 37.4611H78.4766C77.8371 37.4611 77.4327 37.152 77.3958 36.6349C77.3588 36.1236 77.7632 35.7329 78.3794 35.6882C78.7896 35.659 79.1998 35.6435 79.6003 35.6435C82.4735 35.6435 85.1504 36.4289 87.5571 37.9782C92.6951 41.2869 95.2593 47.4903 93.9393 53.4117C92.6115 59.3663 87.701 63.9463 81.7212 64.8056C81.0291 64.9047 80.3234 64.9553 79.6275 64.9553V64.9533Z" fill="white"/>
</svg>
